#!OML:ASF H:\Dans Jumps\Project 1\Capture day 1\Session 1\subject.ASF
:FULLY-SPECIFIED
:DEGREES
459
root 0.375076 17.7236 -2.54881 6.45918 -1.14874 -1.20474
lowerback -0.664864 -0.0494813 -0.204869
upperback 4.04816 -0.111359 1.29933
thorax 4.54766 -0.0905139 1.45089
lowerneck -12.0617 0.436558 -2.05253
upperneck 36.4898 0.756475 1.25134
head 14.5743 0.206502 0.998402
rclavicle 2.78299e-015 -6.55989e-015
rhumerus -21.9352 -12.5717 -83.2431
rradius 24.1294
rwrist 31.9735
rhand -18.4075 -26.0258
rfingers 7.12502
rthumb 7.87704 -55.859
lclavicle 2.78299e-015 -6.55989e-015
lhumerus -19.5141 -1.67806 88.3652
lradius 17.9233
lwrist 3.98279
lhand -25.9932 -4.60685
lfingers 7.12502
lthumb 0.552273 25.3722
rfemur -15.9732 -0.376058 18.7007
rtibia 23.601
rfoot -12.7267 0.843997
rtoes 14.1823
lfemur -14.0647 6.65189 -17.5012
ltibia 20.5392
lfoot -9.36257 6.23517
ltoes 2.09607
460
root 0.374464 17.7237 -2.5515 6.45614 -1.13231 -1.20892
lowerback -0.665593 -0.0478742 -0.194043
upperback 4.04333 -0.109507 1.29974
thorax 4.54294 -0.0891521 1.4453
lowerneck -12.0517 0.433972 -2.04717
upperneck 36.4977 0.751082 1.25143
head 14.5759 0.204974 0.996704
rclavicle -2.38542e-015 7.95139e-016
rhumerus -21.9467 -12.5871 -83.25
rradius 24.133
rwrist 31.9598
rhand -18.4295 -26.0041
rfingers 7.12502
rthumb 7.85577 -55.8381
lclavicle -2.38542e-015 7.95139e-016
lhumerus -19.5089 -1.64728 88.3521
lradius 17.9138
lwrist 3.96272
lhand -25.9717 -4.58089
lfingers 7.12502
lthumb 0.573117 25.3981
rfemur -15.9714 -0.389126 18.707
rtibia 23.59
rfoot -12.7188 0.848216
rtoes 14.2066
lfemur -14.0726 6.65112 -17.4948
ltibia 20.5371
lfoot -9.35514 6.21647
ltoes 2.09699
461
root 0.373906 17.7238 -2.55412 6.45284 -1.11565 -1.20717
lowerback -0.667424 -0.0463942 -0.188161
upperback 4.03864 -0.107589 1.29788
thorax 4.53902 -0.0878991 1.44016
lowerneck -12.0373 0.430742 -2.04254
upperneck 36.5026 0.744218 1.25315
head 14.5751 0.202966 0.99551
rclavicle -3.13086e-015 6.36111e-015
rhumerus -21.9559 -12.6026 -83.2584
rradius 24.1333
rwrist 31.9428
rhand -18.4521 -25.9851
rfingers 7.12502
rthumb 7.83396 -55.8199
lclavicle -3.13086e-015 6.36111e-015
lhumerus -19.5014 -1.63342 88.3421
lradius 17.8994
lwrist 3.95678
lhand -25.9583 -4.56266
lfingers 7.12502
lthumb 0.58602 25.4163
rfemur -15.9704 -0.405203 18.7064
rtibia 23.5822
rfoot -12.7129 0.854027
rtoes 14.2315
lfemur -14.0774 6.64874 -17.4951
ltibia 20.5309
lfoot -9.34743 6.19737
ltoes 2.11072
462
root 0.373401 17.7239 -2.55667 6.45 -1.0979 -1.20298
lowerback -0.670989 -0.0456449 -0.184117
upperback 4.03464 -0.106576 1.29526
thorax 4.53681 -0.0871588 1.43522
lowerneck -12.0207 0.428421 -2.04017
upperneck 36.5053 0.738778 1.25628
head 14.5726 0.201468 0.995474
rclavicle 2.5842e-015 -3.37934e-015
rhumerus -21.9617 -12.6129 -83.2696
rradius 24.1326
rwrist 31.9182
rhand -18.464 -25.9665
rfingers 7.12502
rthumb 7.82249 -55.8018
lclavicle 2.5842e-015 -3.37934e-015
lhumerus -19.4922 -1.6313 88.3351
lradius 17.8862
lwrist 3.96564
lhand -25.9499 -4.54543
lfingers 7.12502
lthumb 0.594103 25.4335
rfemur -15.971 -0.424611 18.703
rtibia 23.5778
rfoot -12.7088 0.861376
rtoes 14.2545
lfemur -14.0807 6.6457 -17.4986
ltibia 20.521
lfoot -9.33822 6.17803
ltoes 2.12149
463
root 0.372845 17.7241 -2.55922 6.44717 -1.07957 -1.19417
lowerback -0.674512 -0.045578 -0.186146
upperback 4.03051 -0.106269 1.29225
thorax 4.53449 -0.0869864 1.43324
lowerneck -12.0002 0.426357 -2.04057
upperneck 36.5043 0.733922 1.26072
head 14.5675 0.200047 0.996487
rclavicle -1.2424e-015 9.14409e-015
rhumerus -21.9637 -12.6232 -83.2805
rradius 24.1279
rwrist 31.8962
rhand -18.4703 -25.9477
rfingers 7.12502
rthumb 7.81646 -55.7832
lclavicle -1.2424e-015 9.14409e-015
lhumerus -19.4821 -1.63849 88.3317
lradius 17.8733
lwrist 3.98788
lhand -25.9514 -4.54089
lfingers 7.12502
lthumb 0.592696 25.438
rfemur -15.9727 -0.443061 18.6946
rtibia 23.5759
rfoot -12.7063 0.865412
rtoes 14.2681
lfemur -14.0828 6.63973 -17.5067
ltibia 20.5089
lfoot -9.32779 6.1599
ltoes 2.13736
464
root 0.372308 17.7242 -2.56177 6.44542 -1.06038 -1.18314
lowerback -0.679383 -0.0470706 -0.192106
upperback 4.02728 -0.107974 1.29012
thorax 4.53395 -0.0879912 1.4343
lowerneck -11.9832 0.425305 -2.0447
upperneck 36.5029 0.731582 1.26545
head 14.5629 0.199221 0.998688
rclavicle 1.14301e-015 -7.95139e-015
rhumerus -21.9604 -12.628 -83.2917
rradius 24.1227
rwrist 31.8724
rhand -18.4555 -25.9392
rfingers 7.12502
rthumb 7.83069 -55.7742
lclavicle 1.14301e-015 -7.95139e-015
lhumerus -19.4713 -1.64275 88.3299
lradius 17.8661
lwrist 4.01577
lhand -25.9555 -4.5409
lfingers 7.12502
lthumb 0.588677 25.438
rfemur -15.976 -0.461747 18.6837
rtibia 23.5752
rfoot -12.7044 0.867631
rtoes 14.2825
lfemur -14.0867 6.6315 -17.5176
ltibia 20.4971
lfoot -9.31737 6.14341
ltoes 2.1511
465
root 0.37176 17.7244 -2.5644 6.44307 -1.04174 -1.17507
lowerback -0.681497 -0.0491526 -0.196155
upperback 4.02385 -0.110576 1.28969
thorax 4.53164 -0.0893986 1.43599
lowerneck -11.9659 0.424275 -2.05266
upperneck 36.5007 0.729814 1.27155
head 14.5578 0.198297 1.00221
rclavicle -6.70898e-015 -2.98177e-015
rhumerus -21.9557 -12.6339 -83.3013
rradius 24.1176
rwrist 31.8565
rhand -18.4655 -25.9168
rfingers 7.12502
rthumb 7.82105 -55.7522
lclavicle -6.70898e-015 -2.98177e-015
lhumerus -19.462 -1.64168 88.3284
lradius 17.8657
lwrist 4.03926
lhand -25.9556 -4.53692
lfingers 7.12502
lthumb 0.588647 25.442
rfemur -15.9791 -0.477356 18.6762
rtibia 23.5746
rfoot -12.7022 0.866496
rtoes 14.2899
lfemur -14.0912 6.62374 -17.525
ltibia 20.4862
lfoot -9.30592 6.12739
ltoes 2.16348
466
root 0.371146 17.7244 -2.56708 6.4409 -1.02378 -1.17078
lowerback -0.683563 -0.0510438 -0.196913
upperback 4.02124 -0.113073 1.29023
thorax 4.53017 -0.0906593 1.43686
lowerneck -11.9508 0.422645 -2.06326
upperneck 36.498 0.727556 1.27871
head 14.553 0.196944 1.00657
rclavicle -3.47873e-016 -4.77083e-015
rhumerus -21.9472 -12.6496 -83.3086
rradius 24.108
rwrist 31.856
rhand -18.4797 -25.8893
rfingers 7.12502
rthumb 7.80735 -55.7251
lclavicle -3.47873e-016 -4.77083e-015
lhumerus -19.4531 -1.63757 88.327
lradius 17.8705
lwrist 4.05928
lhand -25.9555 -4.54171
lfingers 7.12502
lthumb 0.58876 25.4372
rfemur -15.9821 -0.487715 18.6732
rtibia 23.5725
rfoot -12.6979 0.861502
rtoes 14.3041
lfemur -14.0979 6.61576 -17.5278
ltibia 20.4786
lfoot -9.29464 6.11247
ltoes 2.17981
467
root 0.370558 17.7246 -2.56974 6.43868 -1.00422 -1.16757
lowerback -0.686369 -0.053788 -0.195704
upperback 4.02062 -0.116793 1.29071
thorax 4.53122 -0.0924721 1.43651
lowerneck -11.939 0.421098 -2.07492
upperneck 36.4943 0.725521 1.28661
head 14.5485 0.19564 1.01147
rclavicle 6.95746e-016 -6.75868e-015
rhumerus -21.9342 -12.6699 -83.316
rradius 24.1007
rwrist 31.8637
rhand -18.5193 -25.8559
rfingers 7.12502
rthumb 7.76909 -55.6931
lclavicle 6.95746e-016 -6.75868e-015
lhumerus -19.4419 -1.63702 88.3261
lradius 17.8789
lwrist 4.07891
lhand -25.9527 -4.54961
lfingers 7.12502
lthumb 0.591417 25.4293
rfemur -15.9834 -0.500712 18.6716
rtibia 23.5685
rfoot -12.6943 0.857446
rtoes 14.3185
lfemur -14.1066 6.60841 -17.5295
ltibia 20.4742
lfoot -9.28446 6.09541
ltoes 2.19997
468
root 0.369967 17.7246 -2.57235 6.43563 -0.983929 -1.16948
lowerback -0.688152 -0.0564436 -0.188252
upperback 4.02081 -0.120617 1.29182
thorax 4.53251 -0.0941219 1.43329
lowerneck -11.9302 0.419702 -2.0848
upperneck 36.492 0.724031 1.29252
head 14.5454 0.194533 1.01535
rclavicle -5.46658e-016 -4.96962e-015
rhumerus -21.9205 -12.692 -83.3243
rradius 24.0941
rwrist 31.8717
rhand -18.5634 -25.8258
rfingers 7.12502
rthumb 7.72655 -55.6646
lclavicle -5.46658e-016 -4.96962e-015
lhumerus -19.4316 -1.64006 88.3252
lradius 17.8921
lwrist 4.10045
lhand -25.9469 -4.5591
lfingers 7.12502
lthumb 0.597033 25.4198
rfemur -15.9822 -0.510905 18.6757
rtibia 23.5624
rfoot -12.6895 0.851613
rtoes 14.3366
lfemur -14.1159 6.60286 -17.5253
ltibia 20.4731
lfoot -9.27714 6.07617
ltoes 2.21418
469
root 0.369342 17.7247 -2.57493 6.43282 -0.965516 -1.17124
lowerback -0.691744 -0.0580808 -0.180681
upperback 4.02267 -0.123076 1.29199
thorax 4.53654 -0.095087 1.42912
lowerneck -11.9217 0.417312 -2.09181
upperneck 36.4867 0.720878 1.29672
head 14.5409 0.192909 1.01773
rclavicle -9.93923e-016 -3.57812e-015
rhumerus -21.9043 -12.7137 -83.3343
rradius 24.0894
rwrist 31.878
rhand -18.6012 -25.8073
rfingers 7.12502
rthumb 7.6901 -55.6475
lclavicle -9.93923e-016 -3.57812e-015
lhumerus -19.4204 -1.64527 88.3246
lradius 17.9082
lwrist 4.12015
lhand -25.9446 -4.57174
lfingers 7.12502
lthumb 0.599273 25.4072
rfemur -15.9805 -0.520069 18.6798
rtibia 23.5544
rfoot -12.6836 0.846763
rtoes 14.3516
lfemur -14.1259 6.59826 -17.5211
ltibia 20.4741
lfoot -9.27173 6.05697
ltoes 2.23219
470
root 0.368697 17.7248 -2.57743 6.43089 -0.946863 -1.1754
lowerback -0.697646 -0.0591969 -0.170528
upperback 4.02591 -0.124949 1.29221
thorax 4.5433 -0.0956816 1.42358
lowerneck -11.9128 0.41411 -2.09272
upperneck 36.4765 0.716621 1.29591
head 14.5342 0.191022 1.01672
rclavicle 5.46658e-016 -9.93923e-015
rhumerus -21.8892 -12.726 -83.3471
rradius 24.0927
rwrist 31.8695
rhand -18.6404 -25.7968
rfingers 7.12502
rthumb 7.65225 -55.6384
lclavicle 5.46658e-016 -9.93923e-015
lhumerus -19.4088 -1.65473 88.3247
lradius 17.9295
lwrist 4.14208
lhand -25.9379 -4.57183
lfingers 7.12502
lthumb 0.605758 25.407
rfemur -15.9785 -0.528081 18.6867
rtibia 23.5446
rfoot -12.6755 0.841387
rtoes 14.3647
lfemur -14.1376 6.5941 -17.514
ltibia 20.4771
lfoot -9.26868 6.03691
ltoes 2.24925
471
root 0.367957 17.725 -2.57992 6.4299 -0.930346 -1.1826
lowerback -0.703969 -0.0592414 -0.158673
upperback 4.02978 -0.125491 1.29329
thorax 4.55092 -0.0955739 1.41806
lowerneck -11.9073 0.410495 -2.08746
upperneck 36.4649 0.71212 1.28956
head 14.5276 0.189151 1.0123
rclavicle -6.95746e-016 1.92821e-014
rhumerus -21.8739 -12.735 -83.3603
rradius 24.0979
rwrist 31.8578
rhand -18.6705 -25.793
rfingers 7.12502
rthumb 7.62316 -55.6356
lclavicle -6.95746e-016 1.92821e-014
lhumerus -19.3947 -1.65925 88.3253
lradius 17.9497
lwrist 4.15444
lhand -25.935 -4.56829
lfingers 7.12502
lthumb 0.608541 25.4106
rfemur -15.9776 -0.530135 18.6974
rtibia 23.5332
rfoot -12.6652 0.831538
rtoes 14.3636
lfemur -14.1507 6.58944 -17.5029
ltibia 20.4812
lfoot -9.26506 6.0193
ltoes 2.25907
